# xmcd CD database file
#
# Track frame offsets:
#	150
#	17788
#	34900
#	50739
#	67796
#	86812
#	106753
#	121931
#	142319
#	160696
#
# Disc length: 2339 seconds
#
# Revision: 0
# Processed by: cddbd v1.5.2PL0 Copyright (c) Steve Scherf et al.
# Submitted via: CDex 1.70beta2
#
DISCID=8409210a
DTITLE=CH - Country Helvetia
DYEAR=2011
DGENRE=Country
TTITLE0=Gib Nid Uf
TTITLE1=Heiwäg
TTITLE2=A 1
TTITLE3=Saas Fee
TTITLE4=öpper öppedie 
TTITLE5=Wiiter
TTITLE6=Erfinder
TTITLE7=Usziit
TTITLE8=10 Shots
TTITLE9=Schöni Wält
EXTD=YEAR: 2011
EXTT0=
EXTT1=
EXTT2=
EXTT3=
EXTT4=
EXTT5=
EXTT6=
EXTT7=
EXTT8=
EXTT9=
PLAYORDER=
